<?xml version="1.0" encoding="utf-8"?>
<!-- Generator: Adobe Illustrator 26.2.1, SVG Export Plug-In . SVG Version: 6.00 Build 0)  -->
<svg version="1.1" id="Layer_1" xmlns="http://www.w3.org/2000/svg" xmlns:xlink="http://www.w3.org/1999/xlink" x="0px" y="0px"
	 viewBox="0 0 220 100" style="enable-background:new 0 0 220 100;" xml:space="preserve">
<style type="text/css">
	.st0{fill:#E21E2D;}
</style>
<g>
	<path class="st0" d="M194.7,36.8c0.1,0.6,0,1.2,0,1.8c-0.3,1.6-0.9,3.1-1.8,4.2c-0.1,0.3-0.4,0.4-0.7,0.6c-0.4,0.1-0.6-0.3-0.4-0.7
		c0.1-1,0.4-1.9,0.6-3c0-0.3,0-0.7,0.1-1c0-0.7-0.1-1.5-0.1-2.2c0-0.9,0.1-1.2,0.7-1.2C193.8,35.3,194.4,35.7,194.7,36.8z
		 M198.7,36.8c-0.3-1-1-1.5-1.9-1.6c-0.7-0.1-0.9,0.1-0.9,1.2c0,0.7,0.1,1.5,0.1,2.2c0,0.3,0,0.7-0.1,1c-0.1,1-0.4,1.9-0.7,3
		c-0.1,0.6,0.1,1,0.6,0.7c0.3-0.1,0.6-0.3,0.9-0.6c1-1.2,1.6-2.7,1.9-4.2C198.9,38.1,199,37.5,198.7,36.8z M42.2,17.4
		c0.1,0.3,0.4,0.4,0.7,0.6c0.4,0.1,0.6-0.3,0.4-0.7c-0.1-1-0.4-1.9-0.6-3c0-0.3,0-0.7-0.1-1c0-0.7,0.1-1.5,0.1-2.2
		c0-0.9-0.1-1.2-0.7-1.2c-0.7,0.1-1.3,0.6-1.6,1.6c-0.1,0.6,0,1.2,0,1.8C40.7,14.8,41.3,16.3,42.2,17.4z M38.3,17.4
		c0.3,0.3,0.6,0.4,0.9,0.6c0.4,0.1,0.7-0.3,0.6-0.7c-0.3-1-0.4-1.9-0.7-3c-0.1-0.3-0.1-0.7-0.1-1c0-0.7,0.1-1.5,0.1-2.2
		c0-0.9-0.1-1.2-0.9-1.2c-0.9,0.1-1.5,0.6-1.9,1.6c-0.1,0.6,0,1.2,0.1,1.8C36.7,14.8,37.2,16.3,38.3,17.4z M89.2,25.2
		c0.7,0.3,1.6,0.1,2.5,0c0,0,0.3,0,0.6-0.1c0.1,0,0.3,0,0.4-0.1c-1.2,5.5-2.4,10.9-3.3,16.4c0,0.1,0,0.4,0,0.4v0.1
		c0,0.1,0,0.4,0.1,0.7c0.1,0.1,0.4,0.4,0.7,0.4c0.3,0.1,0.6,0.1,0.9,0c0.1,0,0.3,0,0.4,0h0.1c0.4,0,0.9-0.3,1.2-0.4
		c0.3-0.1,0.6-0.6,0.7-1c1-5.2,2.1-10.6,3.3-15.8c0-0.1,0-0.3,0.1-0.6c0.1-0.4,0.1-1,0.3-1.5c0.6-0.1,0.9-0.1,1.3-0.3
		c1-0.3,2.7-0.7,3-0.9c0.6-0.1,1-0.4,1.6-0.6c0.4-0.1,0.1-0.1,0.4-0.4c0.1-0.1,0.3-0.3,0.1-0.7c0,0,0,0,0-0.1h-0.1
		c-0.4-0.1-0.9-0.1-1.3-0.1c-0.3,0-1.3,0.1-1.5,0.1c-0.4,0-1.6,0.3-2.1,0.3c-0.3,0-0.4,0-0.7,0.1c0.9-4.8,2.2-10,4.3-14.4
		c0.4-1,0.9-2.2,1.8-3.1c0.7-0.7,2.4-1.9,3.1-0.9c0.4,0.6,0.6,1.8,0.6,2.5s0,1.6-0.1,2.4c-0.1,0.7-0.3,1.3-0.3,2.1
		c0,0.3-0.1,1.2-0.1,1.5c0,0.4,0.3,0.9,0.7,0.9c0.6,0.1,1-0.3,1.6-0.4l0,0c0.1-0.1,0.3-0.1,0.4-0.3s0.4-0.3,0.6-0.6
		c0.1-0.1,0.3-0.3,0.3-0.4c0.1-0.3,0.1-0.6,0.3-0.9c0-0.3,0.1-0.4,0.1-0.7c0.1-0.4,0.1-1,0.1-1.5c0-1-0.1-2.1-0.4-3
		c-0.3-0.7-0.7-1.5-1.3-2.1c-1.9-1.8-4.9-1.8-7.4-0.4c-3,1.6-4.2,4.8-5.2,7.7c-1.6,4.3-2.5,8-3.6,12.5c-0.1,0-0.1,0-0.3,0
		c-1,0.1-1.6,0.3-2.8,0.4c-0.3,0-0.7,0.1-1,0.1c-0.3,0-0.3,0-0.7,0.1c-0.4,0-0.9,0-1.3,0.1c-0.3,0-0.4,0.3-0.4,0.6s0.1,0.4,0.3,0.6
		C87.5,24.4,88.3,24.9,89.2,25.2z M188.4,40.8c0,0.1,0,0.1,0,0.3c-0.1,0.6-0.1,1.2-0.3,1.8c-0.1,0.3-0.3,0.6-0.3,0.9
		c-0.1,0.3-0.1,0.6-0.3,0.9c-0.4,1.6-0.9,3.4-1.2,5.1c-1,4.8-2.2,9.5-3.3,14.3c-0.3,1.5-1.2,4.6-1.2,6.1c0,0.1,0,0.1,0,0.3
		c-0.1,1.2-0.1,2.2,0.1,3.7c0,0.3,0.3,0.7,0.4,0.9c0.1,0.3,0.4,0.6,0.9,0.7c0.4,0.3,0.9,0.3,1.5,0.3c0.3,0,0.4-0.1,0.7-0.1
		s0.4-0.1,0.7-0.3c0.1-0.1,0.4-0.3,0.6-0.3c0.3-0.1,0.6-0.4,0.7-0.7c0.3-0.3,0.4-0.6,0.6-0.9l0,0l0.1-0.1l0,0c0,0,0,0,0.1,0l0,0l0,0
		c0,0.1,0,0.1,0,0.3c0,0.1,0,0.1,0,0.3c0,0.3,0,0.4-0.1,0.6c-0.1,0.6-0.4,1-0.9,1.5c-0.1,0.1-0.1,0.3-0.3,0.3
		c-0.4,0.4-0.9,0.7-1.3,0.9c-0.4,0.3-1,0.4-1.6,0.4c-1,0.1-2.1-0.1-3-0.7c-1.2-0.9-2.1-2.2-2.4-3.7c-0.1-0.3-0.1-0.6-0.1-0.9
		c-0.6,1.2-0.9,1.6-1.3,2.8c-1.3,2.1-2.5,3.3-3.7,3.3c-1.2,0.1-3.1-0.3-4.3-1c-1.2-0.9-2.1-1.8-2.4-3c-0.6-2.1-0.4-5.2-0.1-7.4
		c-0.6,0.7-1.5,1.5-2.5,1.6c-0.4,0-0.9-0.1-1.2-0.3c0.1,0-0.7,3-0.9,3.3v0.1c-0.6,1.9-1.3,3.9-2.7,5.7c-1,1.5-2.5,2.7-4.3,3
		c-1.5,0.3-4,0.6-5.4-0.3c-1.6-0.9-1.9-2.1-2.1-3.3c-0.3-1.8,0.3-6,0.9-8.3c-0.9,1-2.2,1.9-3.4,1.9c0,0-0.4,2.1-0.6,2.2
		c-0.3,0.9-0.6,1.6-1,2.5c-0.7,1.6-1.6,3.3-3,4.6c-0.7,0.9-1.6,1.6-2.7,2.2c-1.2,0.6-2.4,0.6-3.4,0.4c-0.9-0.1-1.9-0.3-2.7-0.7
		c-1.5-0.7-2.4-1.9-2.7-3.1c-0.6-3,0.1-7.3,1.8-11.3c1.9-4.6,4.3-7.1,7.1-7.4c0.4,0,2.1,0.3,3.4,1c0.6,0.3,1,0.6,1.3,0.9
		c0.6,0,1,0.4,1.3,0.9c0.7,0.9,1.2,2.2,1.3,3.4c0,0.1,0,2.1,0,2.1c0.6,0,1.8-0.6,3.6-2.2c0,0,0,0,0.1,0c0.1-0.4,0.3-0.9,0.4-1.5
		c0.6-1.5,1.2-2.7,2.2-4c0.9-1,1.9-1.8,3.3-2.1c0.9-0.1,2.4,0,3.1,0.3c1,0.4,1.8,0.6,2.7,1.2c1.8,1,2.2,2.2,2.2,4.5
		c0,0.1,0.1,0.4-0.1,1.9c0.1,0,0.9,0.1,1.6-0.1c1.5-0.7,1.9-1.5,2.5-2.1c0.4-1.6,1-3.1,1.6-4.5c1-2.1,2.7-4.8,5.2-4.9
		c0.9-0.1,1.9,0.1,3,0.9c0.1,0,0.3,0.1,0.6,0.3c0.6,0.3,1.5,0.7,2.2,1.3c0.1-0.7,0.3-1.5,0.4-2.1c0-0.3,0.1-0.4,0.1-0.7
		c0-0.3,0.1-0.4,0.1-0.7c0.1-0.4,0.1-0.9,0.3-1.5c0.1-0.9,0.3-1.9,0.6-2.8c0.3-1.2,0.4-2.5,0.7-3.7c0.1-1.2,0.3-2.4,0.6-3.6
		c0.1-0.7,0.3-1.5,0.3-2.1c0-0.4,0.1-0.9,0.4-1.2c0.1-0.3,0.4-0.3,0.9-0.3c0.4,0.1,0.9,0.3,1.2,0.4c0.1,0,0.1,0.1,0.3,0.1
		c0.4,0.1,0.9,0.3,1.2,0.6C187.8,40.2,188.3,40.5,188.4,40.8z M142.6,69.2c-1.9-3.7-1.5-4.9-1.5-5.1c0,0,0-0.1,0.1-0.3
		c-0.1-0.1-0.3-0.3-0.4-0.4c-0.4-0.3-0.7-0.4-0.9-0.4c-1.9,0.1-3.7,2.4-5.2,6.3c-1.3,3.6-1.9,7.9-1.5,10.1c0.1,0.6,0.4,1,0.9,1.5
		c0.3,0.3,0.7,0.4,1,0.4c1.3,0.1,2.7-1.2,3.4-2.1c1.5-1.6,2.4-3.6,3.1-5.5c0.3-0.7,0.4-1.3,0.6-2.1c0.1-0.6,0.3-1.3,0.4-1.9
		C142.6,69.5,142.6,69.4,142.6,69.2z M160.8,67.3c0,0-0.9-1.3-1.2-1.8c-0.4-0.9-0.7-1.9-0.4-3c0.1-0.3,0.1-0.6,0.3-0.9
		c0-0.1,0.1-0.4,0.1-0.4c-0.3-0.1-0.6-0.1-0.9-0.3c-0.6-0.1-1-0.1-1.6,0.1c-0.4,0.3-0.9,0.6-1.3,1c-0.6,0.6-0.9,1.3-1.3,2.1
		c-1.6,2.7-2.5,6.4-2.8,9.4c-0.1,1.5-0.4,4,0.6,5.1c0.4,0.4,1.2,0.6,1.8,0.4c1.8-0.4,2.7-1.6,3.7-3.3c1.2-1.8,2.4-6.4,2.8-7.4
		C160.8,67.9,160.8,67.3,160.8,67.3z M179.8,59.6c-2.1-1.6-3.1-1.9-3.6-1.9c-1.6,0.1-3.1,2.5-4.5,7.3c-1.3,4.5-1.6,8.8-1.2,10.7
		c0.3,1,0.9,1.5,1.9,1.3c1.5-0.1,3.1-3,4.9-7.4l0,0C178.9,65.7,179.7,61.9,179.8,59.6z M128.8,63.1c0.4,0.3,0,1.5-0.1,1.9
		c-0.1,0.3-0.1,0.6-0.3,0.9c-1,3.9-1.9,7.6-2.8,11.5c-0.7,3.6-1.8,7.1-2.7,10.7c-1.2,4.6-3.7,11.2-9.1,11.3c-2.4,0-4.8-2.4-5.8-4.8
		c-0.3-0.6-0.4-1.5-0.4-2.2c0-0.3,0.1-0.6,0.4-0.7c0.3,0,1,0.3,1.3,0.4c0.4,0.1,0.9,0.3,0.6,0.9c-0.4,1.2-0.3,2.2,0.4,3.3
		c0.6,0.7,1.5,1.8,2.7,1.5c0.7-0.1,1.3-0.6,1.9-1.2c2.2-1.9,3.4-4.8,4.2-7.6c0.6-2.5,1.2-5.1,1.8-7.6c-0.4,0.4-0.9,0.9-1.3,1.3
		c-1.2,1-3,1.9-4.5,1.8c-1.5-0.1-2.5-1.2-3.3-2.4c-2.1-3.6-1-8.5,0.7-12.4c1.5-3.3,4.9-8,8.6-7.3c1.3,0.3,2.7,0.9,3.3,2.2v0.1
		c0.1-0.4,0.1-0.9,0.3-1.2c0-0.1,0.1-1,0.3-1.2c0.1-0.1,0.6-0.3,0.7-0.1c0.1,0,0.4,0,0.6,0.1c0.3,0,0.6,0.3,0.9,0.3
		c0.3,0.1,0.3,0.1,0.4,0.1c0.1,0,0.3,0.1,0.3,0.3C128.5,63,128.6,63.1,128.8,63.1z M124.3,66.1c-0.1-0.3-0.3-0.6-0.3-0.7
		c-1.3-1.6-3.6-0.4-5.1,0.9c-1.6,1.5-2.7,4.6-3.4,6.7c-0.7,2.4-1,4.8-0.7,7.1c0,0.4,0.1,0.9,0.4,1.3c0.9,1.5,3.1,0.9,4.3,0
		c0.7-0.4,1.3-1.2,1.9-1.9v-0.1C122.4,74.9,123.4,70.6,124.3,66.1z M110.3,14c-0.9,0-1.6,0.7-2.1,1.5c-0.1,0.1-0.1,0.3-0.3,0.4
		c-0.1,0.6,0,0.9,0.3,1.3c0.1,0.3,0.3,0.6,0.6,0.7c0.3,0.3,0.6,0.3,0.9,0.4c0.4,0.1,0.9-0.3,1.2-0.6c0.4-0.3,0.7-0.6,1-1
		c0.1-0.3,0.4-0.6,0.4-1c0.1-0.6-0.3-1-0.7-1.3c-0.1-0.1-0.3-0.1-0.4-0.3C110.9,14.2,110.6,14,110.3,14z M152.1,20.4
		c1.9-4.6,3.9-7,5.8-7.1c0.6,0,1.8,0.4,3.6,1.5c0.9,0.6,3.1,1.9,3.3,2.8c0.6,2.2-0.6,4.6-3.6,7c-2.7,2.1-5.2,3.7-7.4,3.9
		c-0.3,0.7-0.3,1.5,0,2.4c0.3,1.2,1.5,1.9,2.7,2.2c0.4,0.1,0.9,0,1.3,0c1.6-0.1,3.4-0.7,4.8-1.6c1.5-0.9,2.4-1.8,3.6-3.1
		c0.1-0.3,0.3-0.3,0.3-0.3s2.2-10.1,2.8-11.8c0.3-1,0.6-2.2,1-3.3c0-0.1,0.1-0.3,0.3-0.4c0,0,0,0,0-0.1c0,0,0,0,0.1,0
		c0.1,0,0.3,0,0.3,0c0.1,0,0.1,0,0.3,0.1c0.1,0,0.3,0.1,0.4,0.1c0.4,0.3,1.9,0.9,2.1,1.3c0,0.1-0.1,0.4-0.1,0.7c-0.3,1-0.7,1-1,2.1
		c0,0.3,0,0.4-0.1,0.6c0.6-0.7,1.2-1.6,1.8-2.2c1.5-1.6,3.6-3.4,5.8-2.8c2.1,0.6,2.2,2.8,1.6,4.8c-0.4,1.6-0.9,3.7-2.4,4.5
		c-0.4,0.3-2.8,0.7-2.5-0.6c0.3-1.6,1.2-2.2,1.6-3.9c0.3-1,0.6-3-0.9-2.4c-1.8,0.7-3.1,2.1-4.2,3.7c-0.6,0.7-1,1.5-1.5,2.4
		c-0.3,0.6-0.6,1.3-0.9,2.1c-0.4,1.2-0.6,1.3-0.7,1.9c-0.1,0.7-0.6,2.7-0.7,3.6c-0.1,0.9-0.6,2.2-0.7,2.7v0.1c0,0.4-0.1,0.7-0.3,1.2
		c-0.1,0.3-0.1,0.6-0.3,0.7c-0.1,0.3-0.3,0.4-0.4,0.7c-0.3,0.4-1.5,0.1-1.8,0.1c-0.1,0-0.1,0-0.3-0.1c-0.1,0-0.1-0.1-0.1-0.3
		c-0.1-0.1-0.1-0.4-0.3-0.6c-0.1-0.1-0.1-0.3-0.1-0.4c0-0.3,0.4-1.8,0.6-2.2c-1.5,1.6-3,3-4.9,3.9c-3,1.5-6.5,1.5-9.1-0.4
		c-1-0.7-1.6-2.1-1.9-3.3C149.6,28,150.3,24.7,152.1,20.4z M154.7,25c0.3,0.1,0.4,0.1,0.7,0.1c1.5-0.1,3.1-1,4.8-2.7
		c1.6-1.6,2.4-3.1,2.1-4.5c-0.1-0.4-0.3-0.7-0.7-1c-0.3-0.3-0.7-0.4-1-0.4c-1.2,0.1-2.5,1.3-3.7,3.4C155.8,21.5,155.1,23.2,154.7,25
		z M111.5,37.4c0.3-0.3,0.7-0.7,0.9-1c0,0,0.1-0.1,0.1-0.3c0.3-2.1,0.4-3,0.7-5.1c0.6-3.4,1.5-6.7,2.1-10c0-0.4,0-0.9,0-1.2
		c0-0.4,0.1-0.9,0.6-1c0.3-0.1,0.7-0.1,1,0c0.6,0.1,1.2,0.3,1.6,0.4c0.3,0,0.6,0.1,0.6,0.4c0.1,0.1,0,0.4,0,0.6
		c-0.6,1.9-1.2,4.2-1.8,6.1c1.6-2.8,2.1-3.6,3.1-4.9c1-1.3,2.4-2.7,3.9-3.4c1.5-0.7,3.3-0.7,4.3,0.3c0.9,0.7,1.2,1.9,1,3.1
		c0,1.2-0.4,2.4-0.7,3.6c-0.6,2.2-1.2,4.5-1.6,6.8c-0.3,1-0.3,2.2,0,3.3c0.7,2.2,3.3,1.5,4.8,0.3c0.3-0.3,0.6-0.6,0.7-0.9
		c-1.9-3.6-0.9-8.3,0.9-12.2c1.5-3.3,4.9-7.9,8.6-7.3c1.3,0.3,2.7,0.9,3.3,2.2v0.1c0.1-0.4,0.1-0.9,0.3-1.2c0-0.1,0.1-1.2,0.4-1.3
		c0.4-0.3,1.2-0.1,1.3-0.1c0.6,0.1,1.2,0.6,1.8,0.7c0.1,0,0.1,0,0.1,0c0.1,0,0.3,0.1,0.4,0.3c0.4,0.3-0.4,2.4-0.6,2.8
		c-0.1,0.3-0.1,0.6-0.3,0.7c-1,3.9-1.8,6.7-2.7,10.6c-0.7,3.6-1.8,7.1-2.8,10.6c-1.2,4.6-3.6,11.2-8.9,11.2c-2.5,0-4.8-2.4-5.4-4.9
		c-0.1-0.6-0.6-1.6-0.1-2.1c0.1-0.3,0.7-0.9,1.3-0.7c0.1,0,0.6,0.4,0.7,0.6c0.6,0.7,0.3,1.8,0.1,2.5c-0.1,0.7,0,1.9,0.4,2.4
		c0.4,0.6,1.2,0.7,1.9,0.6c0.7-0.1,1.3-0.6,1.9-1.2c0.7-0.6,1.3-1.3,1.8-2.2c1.9-3,2.7-6.3,3.4-9.7c0.3-1,0.4-2.1,0.7-3.3
		c-0.4,0.4-0.9,0.9-1.3,1.3c-1.2,1-3,1.9-4.5,1.8c-1.2-0.1-2.1-0.7-2.8-1.6c-0.6,0.7-1.3,1.5-2.2,1.9c-0.9,0.4-2.5,0.9-3.6,0.9
		c-0.3,0-0.4,0-0.7,0c-0.9,0-1.8-0.1-2.4-0.6c-1-0.7-1.5-2.1-1.5-3.4c0-1.3,0.4-3.6,0.7-4.9c0.7-3,1.5-6.3,2.1-9.2
		c-3,0.9-4.9,3.7-6.4,6.5c-1.5,3-2.8,7-3.6,10.3c-0.1,0.7-0.4,1.5-0.6,2.1c-0.1,0.4-0.4,0.7-0.9,0.7c-0.6,0-0.9,0.1-1.5,0.1
		c-0.4,0-0.9,0.1-1-0.3c0-0.1,0-0.3,0-0.4c0-0.3,0.1-0.7,0.1-1c-0.4,0.6-0.9,1.2-1.6,1.6c-0.9,0.4-1.8,0.7-2.7,0.7
		c-1.6,0-3-0.4-3.9-1.9c-0.4-0.9-0.6-1.9-0.6-3c0-1.8,0.4-3.6,0.7-5.2c1.5-5.7,1.6-6.7,1.6-6.7c0.3-0.9,0.3-1.3,0.6-2.4
		c0.1-0.4,1-0.6,1.3-0.6c0.9,0,1.2,0,1.9,0.3c0.4,0.3,0.7,0.7,0.9,1.3c0,0.1-0.4,0.7-0.7,1.6c-0.4,1.2-1,2.7-1.9,6.1
		c-0.3,0.9-0.4,1.8-0.6,2.5c-0.1,0.9-0.3,1.8-0.3,2.7c0,1.2,0.3,3,1.6,3.4C109.9,38.9,110.6,38.1,111.5,37.4z M136.1,32.3
		c0,0.4,0.1,0.9,0.4,1.3c0.9,1.5,3.1,0.9,4.3,0c0.7-0.4,1.3-1.2,1.9-1.9c0.4-1.9,0.9-4,1.3-6c0.6-2.5,1-4.9,1.6-7.4
		c-0.1-0.3-0.3-0.6-0.3-0.7c-1.3-1.6-3.6-0.4-5.1,0.9c-1.6,1.5-2.7,4.6-3.4,6.7C136.1,27.6,135.8,30.1,136.1,32.3z M64.2,39.8
		C64,39.9,64,40.2,64,40.4c0,0.1,0,0.1,0,0.1c0,0.3,0,0.6,0,0.7c0,0.3,0.1,0.6,0.3,0.9c0.7,1.8,2.5,3.1,4.8,3.3
		c2.8,0.1,6-1.2,6.7-4.3c0.3-1.2,0.3-2.5-0.1-3.7c-0.3-1.2-1.2-2.1-1.9-2.8c-1.3-1.6-3.4-3-2.8-5.4c0.4-1.9,2.7-3.6,4.5-2.1
		c0.4,0.4,0.6,1,0.4,1.8c-0.1,0.6-0.4,1.3-0.9,1.8c-0.1,0.1-0.4,0.3-0.6,0.6c-0.1,0.1-0.3,0.1-0.3,0.3c0,0.1,0.3,0.3,0.4,0.4
		c0.1,0,0.3,0,0.4,0c0.3,0,0.6,0,0.9-0.1c0.3-0.1,0.6-0.1,0.9-0.4c0.3-0.3,0.6-0.6,0.7-0.9c1-1.9,0.3-4-1.3-5.1l-0.1-0.1
		c-2.5-1.3-5.8-0.3-7.6,2.1c-0.7,1-1.2,2.2-1,3.4c0.1,1.3,0.6,2.4,1.3,3.4c0.7,1.3,1.8,2.5,2.7,3.7c0.9,1.3,1.8,3,0.9,4.6
		c-1.6,2.7-5.4,1.5-6.4-0.6c-0.1-0.3-0.4-0.9-0.4-1.3c0-0.3,0-0.4-0.1-0.6c0-0.1,0-0.3-0.1-0.3c-0.1,0-0.1,0-0.3,0
		C64.3,39.8,64.2,39.8,64.2,39.8z M67.3,24.4c0.3,0,0.6-0.3,0.9-0.6c0.3-0.3,0.4-0.6,0.7-1c0.1-0.3,0.4-0.6,0.6-0.9l0.1-0.1
		c0.1-0.3,0.4-0.7,0.6-1c0.3-0.7,0.4-1.6,0.6-2.4c0-0.3,0-0.6,0-0.9l0,0c0-0.6-0.1-1-0.4-1.5c-0.3-0.4-0.7-0.4-1.2-0.4
		c-1,0.3-1.5,1.2-1.3,2.2c0,0.4,0.3,0.7,0.4,1.2c0.1,0.4,0.1,0.9,0,1.3c-0.1,0.9-0.3,1.6-0.6,2.5c-0.1,0.3-0.3,0.7-0.4,1
		C67.2,24,67.2,24.3,67.3,24.4C67,24.3,67.2,24.4,67.3,24.4z M46,25.8c0.1,0.3,0.3,0.4,0.6,0.6l0,0c0.3,0.3,0.6,0.3,0.7,0.3l0,0
		c0,0,0,0,0.1,0c1.2-0.6,1.2-0.7,1.9-1.6l0,0c0.3-0.3,0.4-0.7,0.4-1.2c0-0.1,0-0.1,0-0.3c-0.1-0.3-0.1-0.4-0.3-0.6l-0.1-0.1
		c-0.1-0.1-0.4-0.3-0.6-0.4c-0.1,0-0.1-0.1-0.3-0.1l0,0c0,0-0.1,0-0.1-0.1c-0.1,0-0.1,0-0.3-0.1c-0.1-0.1-0.4-0.1-0.7-0.1
		c-0.1,0-0.3,0-0.4,0.1c-0.3,0.3-0.7,0.7-0.9,0.9c-0.1,0.1-0.1,0.1-0.3,0.3c0,0,0,0-0.1,0.1c0,0-0.1,0.1-0.1,0.3
		c-0.3,1-0.3,1.2,0.3,1.9C45.9,25.6,46,25.6,46,25.8z M42.5,47.2c0.3,0.3,0.6,0.4,0.9,0.6c0.7,0.3,1.3,0.4,2.2,0.4
		c1,0,2.8-0.3,3.7-0.7c0.9-0.4,2.2-1.3,2.8-2.1l0.3,0.6c0.1,0.1,0.3,0.3,0.4,0.4c0.4,0.3,0.9,0.4,1.3,0.6c0.6,0.1,1.3,0.1,1.9,0.1
		c0.7,0,1.6-0.1,2.4-0.4c1-0.4,2.1-1.3,2.7-2.2c0.1-0.1,0.1-0.3,0.3-0.6c0.1-0.1,0.1-0.4,0.1-0.6c0-0.1,0-0.1,0-0.3
		c0-0.1-0.1-0.1-0.1-0.3c0-0.1,0-0.1,0-0.3v-0.1c-0.1,0-0.1,0.1-0.1,0.1c0,0.1-0.1,0.1-0.1,0.3c-0.1,0.1-0.1,0.3-0.3,0.4
		c-0.3,0.4-0.6,0.7-1,1c-0.6,0.6-1.5,1-2.4,1.2c-1,0.1-1.9-0.4-2.1-1.3c-0.1-0.4,0-1.6,0-1.6c0.3-2.1,0.7-4.2,1.2-6.3
		c0.3-1,0.7-3.7,1-4.8c0-0.3,0.6-2.5,0.7-2.5c0.6-0.1,1.3-0.1,1.8-0.3c0.6,0,0.9-0.1,1.2-0.1c0.4,0,0.6,0,1.2,0h0.1
		c0.3,0,0.7,0,1.2-0.3C64,28,64,28,64,27.9l0,0c0.1-0.1,0.1-0.1,0.1-0.3c0.1-0.1,0-0.1,0.1-0.3v-0.1c0-0.6-0.1-0.7-0.6-0.9h-0.1
		c-0.3-0.1-0.3-0.3-0.4-0.3c-0.1-0.1-0.4-0.1-0.7-0.1c-0.6,0-1,0-1.6,0c-0.3,0-0.6,0.1-0.9,0.1c-0.1,0-0.9,0.1-0.9,0.1
		c0.1-0.6,0.4-1.3,1.3-4c0.3-1.2,0.6-2.1,0.9-2.7c0.1-0.6,0.4-1,0.4-1.6c0-0.4-0.1-0.9-0.6-1.2c-0.1,0-0.1-0.1-0.3-0.1
		c-0.3-0.1-0.6-0.1-0.9-0.1s-0.7-0.1-1-0.1c-0.1,0-0.3,0-0.4,0c-0.1,0-0.3,0-0.3,0h-0.1c0,0,0,0-0.1,0c-0.1,0-0.1,0.1-0.3,0.3
		c-0.1,0.1-0.1,0.3-0.1,0.4c0,0.1,0,0.1,0,0.3s0,0.1,0,0.3c-0.1,0.4-0.3,1-0.6,1.5c-0.3,0.7-0.4,1.3-0.6,2.1
		c-0.3,0.9-0.6,1.8-0.9,2.7c-0.1,0.4-0.3,1-0.4,1.5c0,0.3-0.1,0.4-0.1,0.7c0,0.1-0.1,0.3-0.1,0.4l-0.1,0.4c-0.1,0-0.1,0-0.1,0
		c-3,1-3.3,1.3-3.3,1.6c0,0,0,0,0,0.1s0,0.1-0.1,0.1c0,0.1,0.1,0.1,0.4,0.3c0.1,0,0.3,0.1,0.6,0.1c0.4,0,0.9,0,1.2,0h0.1
		c0.1,0,0.3,0,0.6,0c-0.3,1.9-1.2,4-1.5,6.1c-0.3,1.8-0.7,3.6-0.9,5.4c-0.1,0.9-0.1,1.9,0.1,3c-0.4,0.9-1.5,1.6-2.4,2.1
		c-0.7,0.4-2.1,0.7-3,0.4c-2.1-0.6-1.6-3.7-1.3-5.5c0.1-1.6,0.4-3.3,0.9-4.9c0.4-1.3,0.7-2.7,1.3-3.9c0.1-0.1,0.3-0.3,0.3-0.4
		c0.1-0.1,0.4-0.3,0.6-0.6c0.3-0.4,0-1-0.3-1.5c-0.7-0.7-1.8-1.2-2.8-0.9c-0.4,0-0.9,0.3-1.2,0.6c-0.3,0.3-0.4,0.9-0.4,1.3
		c-0.6,3.3-1.6,6.4-2.1,9.7C40.8,42.6,40.7,45.6,42.5,47.2z M38.3,67.3c-0.6,0.1-1.2,0.6-1.6,1c-0.1,0.1-0.4,0.4-0.4,0.7
		c-0.1,0.6,0.1,1.2,0.3,1.8c0.1,0.3,0.3,0.6,0.6,0.9c0.7,0.6,1.9,0.6,2.7-0.1c0.1-0.3,0.4-0.6,0.4-0.9c0.1-0.4,0.1-0.7,0.3-1.3
		c0,0,0,0,0-0.1c-0.1-0.6-0.4-1.2-0.9-1.6C39.5,67,38.9,67.1,38.3,67.3z M79.1,67.1c0.3,0.1,0.6,0.3,1,0.3c0.3,0,0.6,0,0.7,0
		c0.3,0,0.6,0,0.7-0.1c0.4-0.1,0.9-0.4,1-0.9c0-0.1,0.1-0.3,0.1-0.3c0-0.1,0.1-0.1,0.1-0.3c0.3-0.6-0.1-1.5-0.6-1.9
		c-0.4-0.3-0.6-0.4-1-0.7c0,0,0,0-0.1,0c-0.6-0.1-1.3,0-1.9,0.3c-0.6,0.1-0.7,0.9-0.9,1.5c-0.1,0.6-0.1,1.3,0.1,1.8
		C78.9,66.8,78.9,67,79.1,67.1z M102.6,83.8c0,0.7-0.7,2.1-1,2.4c-0.7,0.7-1.5,1-2.4,1.2c-0.7,0.1-2.1,0-2.8-0.4
		c-0.7-0.4-1.2-1-1.5-1.9c-0.4-1.8-0.1-5.8,0.7-9.7c0.3-1.2,0.6-2.4,0.7-3.6c0.1-0.6,0.3-1,0.3-1.6c0-0.3,0.1-0.7,0-0.9
		c0,0-0.1,0-0.3,0c-0.4,0.1-0.7,0.4-1.2,0.6c-0.4,0.3-0.9,0.6-1.3,1c-1.5,1.3-2.7,3.1-3.6,4.9c-1.2,2.5-1.9,5.2-2.5,7.9
		c0,0.3-0.1,0.3-0.1,0.6c-0.1,1-0.4,2.4-0.9,3.7c-0.3,0.7-2.1,0.9-2.1,0.9c-0.3,0-0.4-0.1-0.6-0.4c-0.1-0.1-0.1-0.4-0.3-0.7
		c0-0.1,0-0.3-0.1-0.3c0,0,0,0,0-0.1c-0.9,1.5-2.7,2.1-4.3,2.1c-0.1,0-0.1,0-0.3,0c-0.6,0-1.2,0-1.8-0.3c-0.1,0-0.3-0.1-0.4-0.1
		c-0.1-0.1-0.4-0.1-0.6-0.3c-0.1-0.1-0.6-0.7-0.7-0.9l0,0c-0.4,0.6-1.2,1.3-1.8,1.8c-1.8,1-3.6,1.3-5.5,0.7
		c-1.5-0.4-2.8-1.2-3.7-2.4c-0.4-0.4-0.7-1-1-1.6s-0.6-1.3-1-1.8c-0.1-0.1-0.3-0.3-0.6-0.4c-0.1,0-1.5,0.4-2.4,0.6
		c-0.1,1-0.4,2.2-0.7,3.3c-0.3,0.9-0.6,3.9-1.8,4c-0.3,0-0.6,0.1-0.9-0.1c-0.1-1.2,0.1-3.1,0.3-4.3c0-0.1,0-0.1,0-0.3
		c-1.3,2.5-3.7,5.1-6.3,5.8c-2.2,0.7-5.7,0.4-7.3-1c-0.3-0.1-0.4-0.4-0.7-0.7c-0.6,0.7-1.3,1.5-2.2,1.9s-2.2,0.7-3.3,0.7
		c-0.4,0-0.7,0-1.2,0s-1-0.1-1.5-0.4c-0.4-0.1-0.7-0.3-1-0.7c-0.3-0.3-0.4-0.6-0.7-0.9c-1.9,2.7-6.7,4-9.2,1.9
		c-1.5-1.2-1.6-3-1.5-4.9c0.1-2.7,0.6-5.4,1-7.9c0.9-5.1,2.1-10.3,3.4-15.2c0.6-2.1,1.2-4.3,1.8-6.4c0.4-1.5,1-3.4,0.9-4.9
		c-0.1-0.7,1-0.6,1.5-0.7c1.3-0.1,3.3-0.4,3.6,1.3c0.3,1.6-0.6,3.4-1.2,4.9c-0.6,1.8-1.2,3.6-1.8,5.5c-1.2,3.6-2.2,7.3-3.1,11
		c-0.7,3-1.2,4.8-1.8,7.7c-0.4,2.4-1.3,6.1,0.3,8c1,1.5,3,0.6,4.3-0.4c0.4-0.3,0.7-0.7,1-1c0-0.1,0.1-0.1,0.3-0.3
		c-0.1-0.6-0.1-1.2-0.1-1.8c0-1.2,0.1-2.8,0.7-5.1c0.9-3.4,1.2-5.2,2.1-8.6c0-0.3,0.1-0.7,0.1-1c0-0.1,0.6-0.1,0.7-0.3
		c0.9-0.1,1.6,0,2.7,0.3c0.1,0,0.4,0.1,0.6,0.3c0.1,0.1,0.4,0.3,0.4,0.6c0.1,0.4-0.3,1.3-0.6,2.2c-0.4,1.2-0.9,2.8-1.9,6.3
		c-0.6,1.9-1,4.2-0.7,6.3c0.1,1,0.4,2.2,1.5,2.5c1,0.3,2.5-0.4,3.4-1.2c0.3-0.3,0.6-0.6,0.9-0.9c-0.7-1.3-1-2.8-1-4.3
		c0-3.6,0.9-7.3,3.1-10.3c0.7-0.9,1.5-1.6,2.4-2.2c2.4-1.6,6.1-1.6,7.9,0.4c1.3,1.6,1.3,4.5,0,6.4c-0.4,0.6-1,1.2-1.8,1.5
		c-0.4,0.3-1.2,0.3-1.8,0.4c-0.1,0-0.1,0-0.3,0c0,0,0,0-0.1,0l0,0c-0.1,0-0.1-0.1,0-0.3c0.7-0.7,1.2-1.6,1.5-2.7
		c0.3-1,0.6-2.1,0.4-3c-0.4-2.8-1.6-2.7-2.5-2.4c-1.2,0.4-2.5,1.9-3.3,3.4c-0.7,1.8-1.3,3.6-1.6,5.5c-0.3,1.8-0.1,3.9,0.4,5.7
		c0.3,0.9,1,1.6,1.8,2.2c1.2,0.9,4.2,0.4,5.5-0.6c1.8-1.3,2.5-2.7,3.4-4.3l0,0c0.9-1.8,1.2-3.9,1.6-5.8c0.4-2.5,0.9-5.2,1.3-7.7
		c1-5.2,2.1-10.4,3.3-15.6c0.3-1.3,0.7-2.8,1-4.2c0.1-0.9,0.1-0.7,0.3-1.2c0.1-0.1,0.3-0.3,0.4-0.3h0.1c0.3,0,0.6,0.3,0.9,0.4
		c0.6,0.3,1.8,0.9,2.1,1.6c0.4,0.9,0,2.1-0.3,3c-0.4,1.3-0.9,2.5-1.3,3.9c-1.3,4.2-2.2,8.2-3.3,12.4c-0.3,1-0.6,2.1-0.7,3.3
		c0,0.1,0,0.4-0.1,0.6c0.1-0.3,0.9-1.3,1-1.8c1-1.6,2.1-3.1,3.9-4c1.3-0.7,2.8-1,4.2-0.4h0.1c0.4,0.1,0.7,0.4,0.9,0.9
		c2.4,2.8,1.2,8.2-1.9,10.4c-1,0.7-2.4,1.3-3.6,1.8c0,0.1,0.1,0.1,0.1,0.3c0.6,1.2,1.5,3,2.2,4c0.4,0.6,1,1.3,1.8,1.6
		c0.7,0.3,1.8,0.4,2.5,0.1c1-0.3,1.9-1,2.5-1.9c-0.1-0.3-0.1-0.3-0.1-0.6c-0.3-1.5-0.1-3.1,0-4.6c0.4-3.7,1.2-7.6,2.2-11.3
		c0-0.3,0.1-0.6,0.3-0.7c0.4-0.4,1-0.4,1.6-0.4c0.4,0,1,0.1,1.5,0.4c0.4,0.3,0.9,0.6,0.9,1.2c0,0.4-0.1,0.7-0.3,1.2
		c-1,2.7-1.6,5.5-2.1,8.3c-0.3,1.9-0.4,3.9,0,5.8c0.1,0.7,0.6,1.6,1.3,1.8c0.6,0.1,1.2-0.1,1.8-0.4c0.6-0.3,1-0.7,1.5-1.3v-0.3
		c0-0.3,0-0.3,0-0.6c0.1-1.9,0.7-5.8,1.3-9.2c0.7-3.4,1-5.1,1.6-6.5c0,0,0,0,0-0.1s0.1-0.4,0.1-0.6c0-0.1,0-0.3,0-0.3
		c0-0.1,0-0.1,0-0.3c0-0.1,0.3-1.2,0.4-1.3s0.3-0.1,0.4,0c0,0,0.1,0,0.3,0.1c0.1,0,0.1,0.1,0.3,0.1c0,0,0,0,0.1,0s0.3,0.1,0.6,0.1
		c0.4,0,0.9,0.3,1.2,0.7c0.3,0.4,0.3,0.9,0.1,1.2c-0.1,0.1-0.1,0.3-0.3,0.6c-0.3,0.6-0.6,1.3-0.7,1.9c-0.1,0.3-0.1,0.7-0.3,1.2
		c-0.3,1.2-0.6,2.1-0.7,2.8c0.7-1.6,1.8-3.4,3-5.1c1.3-1.8,3.3-3.3,5.2-3.9c1.8-0.6,4.2,0.3,4.6,2.4c0.3,1,0,1.8-0.3,2.8
		c-0.9,3.7-1.9,7.3-2.2,11.2c0,1,0,3.1,1.5,2.8c0.6-0.1,1.2-0.6,1.5-1.2c0-0.1,0.3-0.7,0.4-1.2c0.1-0.1,0.1,0,0.3,0
		C102.4,83.7,102.6,83.8,102.6,83.8z M67.9,78.6c0.7-1.2,1.2-2.8,1-4.2c0-0.7-0.3-1.3-0.9-1.6c-0.6-0.3-1.3,0-1.9,0.3
		c-1.6,0.9-3.6,3.3-4.3,4.9c-0.7,1.5-1.3,3-1.8,4.6c0,0.1,0,0.3-0.1,0.4c1.6-0.4,3.3-1,4.3-1.5C65.7,81,67,80.1,67.9,78.6z
		 M103.5,66.4c0.3,0.1,0.6-0.3,0.7-0.4c0.3-0.3,0.4-0.6,0.7-0.9c0.1-0.3,0.4-0.4,0.6-0.7l0.1-0.1c0.1-0.3,0.4-0.6,0.6-1
		c0.3-0.7,0.4-1.5,0.6-2.2c0-0.3,0-0.6,0-0.9l0,0c0-0.4-0.1-1-0.3-1.5c-0.3-0.4-0.7-0.6-1.2-0.4c-0.9,0.1-1.5,1-1.3,1.9
		c0,0.4,0.3,0.7,0.3,1.2c0.1,0.4,0,0.9,0,1.2c-0.1,0.7-0.3,1.5-0.6,2.2c-0.1,0.3-0.3,0.6-0.4,1c-0.1,0.1-0.1,0.4,0,0.6
		C103.3,66.3,103.5,66.3,103.5,66.4z"/>
</g>
</svg>
